<svg xmlns="http://www.w3.org/2000/svg" viewBox="0 0 300 300" enable-background="new 0 0 300 300"><path d="M59.6 133.1l-7.2-11.7 2.6-1 6.3 10.3 5.8-10.3 1.4.5-6.2 11v10.1h-2.7v-8.9zM80.4 120.4c5.8 0 10.8 4.5 10.8 10.6 0 6.3-5.1 11.7-11 11.7-6 0-10.9-4.4-10.9-10.8.1-6.1 5.3-11.5 11.1-11.5zm8.2 12.2c0-5.6-4-10.2-9.3-10.2-5 0-7.5 3.5-7.5 7.9 0 5.9 4.5 10.2 9.5 10.1 5.2 0 7.3-3.1 7.3-7.8zM94.4 121h2.1v12.9c0 4.9 3.4 7.1 6.4 7.1 3.2 0 5.3-2.4 5.3-6.3v-13.7h1.9v13c0 5-3.9 8.6-8.2 8.6-5.5 0-7.5-4.4-7.5-8v-13.6zM138.1 141.6l-2.3 1-3.2-7.6h-8.8l-3 7.5-1.5-.5 8-19.3-.5-1.3 2.3-1 9 21.2zm-13.8-7.8h7.8l-4-9.3-3.8 9.3zM143 132.8v9.2h-2.5v-21h5.8c3.8 0 6.4 2.5 6.4 5.8 0 2.2-1.3 4.3-3.4 5.3l6.1 9.2-2.1 1.3-6.5-9.9h-3.8zm2.8-1.4c2.8-.1 4.4-1.3 4.4-4.3 0-2.9-2-4.8-5.5-4.8h-1.7v9.1h2.8zM160.3 122.5v8.1h7.6v1.5h-7.6v8.5h9.2v1.5h-11.9v-21h11.9v1.5h-9.2zM194.4 132h-11.4v10h-2.6v-21h2.6v9.5h11.4v-9.5h2.7v21h-2.7v-10zM204.3 122.5v8.1h7.6v1.5h-7.6v8.5h9.2v1.5h-11.9v-21h11.9v1.5h-9.2zM219.6 132.8v9.2h-2.5v-21h5.8c3.8 0 6.4 2.5 6.4 5.8 0 2.2-1.3 4.3-3.4 5.3l6.1 9.2-2.1 1.3-6.5-9.9h-3.8zm2.8-1.4c2.8-.1 4.3-1.3 4.3-4.3 0-2.9-2-4.8-5.5-4.8h-1.7v9.1h2.9zM236.9 122.5v8.1h7.6v1.5h-7.6v8.5h9.2v1.5h-11.9v-21h11.9v1.5h-9.2zM22.4 158.4l2.6-1 7.5 17.9 3.4-8.2-4-9.7h9.7l-3.4 8.3 4.1 9.6 7.4-17.9 1.4.5-8 19.3.6 1.4-2.5 1-4.4-10.5-3.4 8.2.6 1.3-2.6 1-9-21.2zm14.8 5.3l2-4.8h-4l2 4.8zM56.6 159.5v8.1h7.6v1.5h-7.6v8.5h9.2v1.5h-11.8v-21h11.9v1.5h-9.3zM93.1 178.6l-2.3 1-3.2-7.6h-8.8l-3 7.5-1.5-.5 8-19.3-.5-1.3 2.3-1 9 21.2zm-13.8-7.8h7.7l-4-9.3-3.7 9.3zM98 169.8v9.2h-2.5v-21h5.8c3.8 0 6.4 2.5 6.4 5.8 0 2.2-1.3 4.3-3.4 5.3l6.1 9.2-2.1 1.3-6.5-9.9h-3.8zm2.8-1.4c2.8-.1 4.4-1.3 4.4-4.3 0-2.9-2-4.8-5.5-4.8h-1.7v9.1h2.8zM115.3 159.5v8.1h7.6v1.5h-7.6v8.5h9.2v1.5h-11.9v-21h11.9v1.5h-9.2zM137.9 162.9v16.1h-1.8v-18.3l-1-1.3 2.3-2 13.6 17.1v-16.5h1.8v18.7l.9 1.1-2.2 1.9-13.6-16.8zM167.2 157.4c5.8 0 10.8 4.5 10.8 10.6 0 6.3-5.1 11.7-11 11.7-6 0-10.9-4.4-10.9-10.8.1-6.1 5.3-11.5 11.1-11.5zm8.1 12.2c0-5.6-4-10.2-9.3-10.2-5 0-7.5 3.5-7.5 7.9 0 5.9 4.5 10.2 9.5 10.1 5.2 0 7.3-3.1 7.3-7.8zM179 158.4l2.6-1 7.5 17.9 3.4-8.2-4.1-9.7h9.799999999999999l-3.5 8.3 4.1 9.6 7.4-17.9 1.4.5-8 19.3.6 1.4-2.5 1-4.4-10.5-3.4 8.2.6 1.3-2.6 1-8.9-21.2zm14.8 5.3l2-4.8h-4l2 4.8zM224.8 169h-11.4v10h-2.6v-21h2.6v9.5h11.4v-9.5h2.7v21h-2.7v-10zM234.7 159.5v8.1h7.6v1.5h-7.6v8.5h9.2v1.5h-11.9v-21h12v1.5h-9.3zM250 169.8v9.2h-2.5v-21h5.8c3.8 0 6.5 2.5 6.5 5.8 0 2.2-1.3 4.3-3.4 5.3l6.1 9.2-2.1 1.3-6.5-9.9h-3.9zm2.8-1.4c2.8-.1 4.3-1.3 4.3-4.3 0-2.9-2-4.8-5.5-4.8h-1.6v9.1h2.8zM267.3 159.5v8.1h7.6v1.5h-7.6v8.5h9.2v1.5h-11.9v-21h11.9v1.5h-9.2z"/></svg>