<svg xmlns="http://www.w3.org/2000/svg" viewBox="0 0 300 300" enable-background="new 0 0 300 300"><path fill="#fff" d="M58.2 129.2v12.5h-3.4v-29.1h8c5.3 0 8.9 3.5 8.9 8.2 0 4.6-3.8 8.4-9.3 8.4h-4.2zm4.1-1.8c3.6-.1 5.9-2.2 5.9-6.2s-2.9-6.8-7.5-6.8h-2.5v13h4.1z"/><path fill="#fff" d="M92.8 111.7c8.1 0 15 6.2 15 14.7 0 8.8-7 16.2-15.2 16.2-8.3 0-15-6.1-15-14.9 0-8.4 7.2-16 15.2-16zm11.4 16.9c0-7.7-5.6-14.2-12.8-14.2-6.9 0-10.4 4.8-10.3 10.9 0 8.2 6.2 14.1 13.2 14 6.9.1 9.8-4.1 9.9-10.7z"/><path fill="#fff" d="M115.1 112.6h8.2c7.5 0 14.8 6.1 14.8 14.7 0 8.3-7 14.4-14.8 14.4h-8.2v-29.1zm3.5 2v25h3.8c6.8-.1 12.1-3.8 12.1-11.3 0-6.9-4.1-13.7-12.9-13.7h-3z"/><path fill="#fff" d="M168.2 139.6c-1.9 1.6-6.1 2.9-9.3 2.9-8.3 0-14.7-5.9-14.7-14.9 0-8.4 7.2-15.9 15.2-15.9 5.4 0 8.3 2 8.3 2l-1.7 2.8c-1.4-.8-4.1-2-7.9-2-6.9 0-10.7 5.4-10.5 11.2.3 8.7 5.9 13.9 12.9 13.8 3.6 0 6-.7 7.7-1.7v1.8z"/><path fill="#fff" d="M198.1 141.1l-3.2 1.5-4.5-10.5h-12.2l-4.2 10.4-2-.7 11.1-26.7-.7-1.8 3.2-1.5 12.5 29.3zm-19.1-10.8h10.8l-5.5-12.9-5.3 12.9z"/><path fill="#fff" d="M202.2 139.3v-4.8s3.2 5.3 9.5 5.3c3.8 0 6.3-1.4 6.4-4.7.5-4.5-4.7-5.9-7.9-7-5.1-1.8-8.3-3.9-7.9-8.8.3-4.8 4.3-7.6 8.8-7.6 3.5 0 6.1 1.2 7.6 2.4v3.8c-1.7-1.7-4.2-3.7-8.3-3.7-2.5 0-5.4 1.5-5.4 4.6 0 3.2 3.4 4.4 7.2 5.6 5.2 1.8 9.3 3.8 8.9 9.4-.2 5.3-4.2 8.7-9.5 8.7-4.5 0-7.6-1.4-9.4-3.2z"/><path fill="#fff" d="M233.2 114.6h-8.3v-2h20.4v2h-8.3v27.1h-3.8v-27.1z"/><path fill="#fff" d="M118.5 165.1v22.3h-2.5v-25.4l-1.5-1.8 3.2-2.7 18.9 23.6v-22.8h2.5v25.8l1.2 1.5-3.1 2.6-18.7-23.1z"/><path fill="#fff" d="M178.2 158.4h3.7v29.1h-3.7v-29.1z"/><rect x="146.2" y="181.7" fill="#fff" width="17.2" height="2"/><path fill="#fff" d="M155.1 158.4c-4.9 0-9.3 4.6-9.3 9.7 0 5.2 3.9 9.1 9.2 9.1 5 0 9.3-4.5 9.3-9.8-.1-5-4.1-9-9.2-9zm.7 16.5c-4.2 0-7.5-3.6-7.5-8.1 0-1.9.6-3.6 1.7-4.7 1-1 2.5-1.6 4.2-1.6 4.1 0 7.4 3.7 7.4 8.2-.1 4.1-2 6.2-5.8 6.2z"/></svg>