<svg xmlns="http://www.w3.org/2000/svg" viewBox="0 0 190 40" enable-background="new 0 0 190 40" class="logo-svg"><g fill="#fff"><polygon points="30.7,7.1 28.5,7.1 28.5,27.3 11.8,6.4 8.9,8.8 10.2,10.4 10.2,32.9 12.4,32.9 12.4,13.1 29,33.7 31.8,31.4 30.7,30"/><path d="M48.3 6.4c-7.1 0-13.5 6.7-13.5 14.1 0 7.8 6 13.2 13.3 13.2 7.3 0 13.5-6.6 13.5-14.3 0-7.6-6.1-13-13.3-13zm1.2 24.6c-6.2 0-11.7-5.2-11.7-12.4 0-5.4 3-9.7 9.2-9.7 6.4 0 11.4 5.7 11.4 12.6-.1 5.7-2.7 9.4-8.9 9.5zM95.5 6.3l-9.1 22-5-11.7 4.2-10.2h-12l5 11.9-4.1 10-9.2-21.9-3.2 1.3 10.8 26 3.2-1.3-.7-1.6 4.2-10 5.4 12.9 3.1-1.3-.8-1.7 10-23.7-1.8-.7zm-17.7 1.9h5l-2.5 5.9-2.5-5.9z"/><polygon points="117.6,18.8 103.6,18.8 103.6,7.1 100.4,7.1 100.4,32.9 103.6,32.9 103.6,20.6 117.6,20.6 117.6,32.9 120.9,32.9 120.9,7.1 117.6,7.1"/><polygon points="126.5,7.7 126.5,8.9 126.5,32.9 128,32.9 129.8,32.9 141.1,32.9 141.1,31.1 129.8,31.1 129.8,20.6 139.1,20.6 139.1,18.8 129.8,18.8 129.8,8.9 141.1,8.9 141.1,7.1 126.5,7.1"/><path d="M160.5 14.3c0-4.2-3.2-7.2-7.9-7.2h-7.1v25.8h3.1v-11.3h4.7l8 12.1 2.6-1.6-7.4-11.3c2.4-1.3 4-3.8 4-6.5zm-8.6 5.6h-3.5v-11.2h2.1c4.2 0 6.7 2.4 6.7 5.9.1 3.8-1.9 5.3-5.3 5.3z"/><polygon points="181.1,8.9 181.1,7.1 166.5,7.1 166.5,7.7 166.5,8.9 166.5,32.9 167.9,32.9 169.7,32.9 181.1,32.9 181.1,31.1 169.7,31.1 169.7,20.6 179,20.6 179,18.8 169.7,18.8 169.7,8.9"/></g></svg>