<svg xmlns="http://www.w3.org/2000/svg" viewBox="0 0 300 300" enable-background="new 0 0 300 300"><g fill="#fff"><path d="M56 141.7v21.5h-2.4v-24.4l-1.4-1.8 3.1-2.6 18.2 22.7v-21.9h2.4v24.8l1.2 1.4-3 2.5-18.1-22.2zM96.2 134.4c7.8 0 14.4 5.9 14.4 14.1 0 8.4-6.7 15.5-14.6 15.5-7.9 0-14.5-5.9-14.5-14.3 0-8.1 7-15.3 14.7-15.3zm10.9 16.2c0-7.4-5.4-13.6-12.3-13.6-6.7 0-10 4.6-9.9 10.5 0 7.9 6 13.5 12.7 13.5 6.6 0 9.4-4.1 9.5-10.4zM113.1 135.7l3.4-1.4 9.9 23.8 4.5-10.9-5.4-12.9h13l-4.6 11.1 5.5 12.7 9.9-23.8 1.9.7-10.7 25.7.8 1.9-3.3 1.4-5.9-14-4.5 10.9.8 1.8-3.5 1.4-11.8-28.4zm19.8 7.1l2.7-6.4h-5.4l2.7 6.4zM175.3 149.8h-15.2v13.3h-3.5v-28h3.5v12.7h15.2v-12.7h3.6v28h-3.6v-13.3zM186.2 137.1v-2h15.8v2h-15.8zm0-1.3h3.5v27.4h-3.5v-27.4zm1 14v-2h12.5v2h-12.5zm.6 13.3v-2h14.2v2h-14.2zM211.2 150.8v12.3h-3.3v-28h7.7c5.1 0 8.6 3.3 8.6 7.8 0 3-1.7 5.7-4.5 7l8.1 12.3-2.8 1.7-8.6-13.1h-5.199999999999999zm3.7-1.7c3.7-.1 5.8-1.7 5.8-5.7 0-3.9-2.7-6.4-7.3-6.4h-2.3v12.2h3.8zM231.9 137.1v-2h15.8v2h-15.8zm0-1.3h3.5v27.4h-3.5v-27.4zm1 14v-2h12.5v2h-12.5zm.6 13.3v-2h14.3v2h-14.3z"/><text transform="translate(110.658 194.951)" font-family="'TiemposText-RegularItalic'" font-size="20.921">Journal</text><text transform="translate(130.85 118.041)" font-family="'TiemposText-RegularItalic'" font-size="20.921">The</text></g></svg>