<?xml version="1.0" encoding="utf-8"?>
<!-- Generator: Adobe Illustrator 18.0.0, SVG Export Plug-In . SVG Version: 6.00 Build 0)  -->
<!DOCTYPE svg PUBLIC "-//W3C//DTD SVG 1.1//EN" "http://www.w3.org/Graphics/SVG/1.1/DTD/svg11.dtd">
<svg version="1.1" id="Layer_1" xmlns="http://www.w3.org/2000/svg" xmlns:xlink="http://www.w3.org/1999/xlink" x="0px" y="0px"
	 viewBox="0 0 300 300" enable-background="new 0 0 300 300" xml:space="preserve">
<g>
	<path d="M59.6,133.1l-7.2-11.7l2.6-1l6.3,10.3l5.8-10.3l1.4,0.5l-6.2,11V142h-2.7V133.1z"/>
	<path d="M80.4,120.4c5.8,0,10.8,4.5,10.8,10.6c0,6.3-5.1,11.7-11,11.7c-6,0-10.9-4.4-10.9-10.8C69.4,125.8,74.6,120.4,80.4,120.4z
		 M88.6,132.6c0-5.6-4-10.2-9.3-10.2c-5,0-7.5,3.5-7.5,7.9c0,5.9,4.5,10.2,9.5,10.1C86.5,140.4,88.6,137.3,88.6,132.6z"/>
	<path d="M94.4,121h2.1v12.9c0,4.9,3.4,7.1,6.4,7.1c3.2,0,5.3-2.4,5.3-6.3V121h1.9v13c0,5-3.9,8.6-8.2,8.6c-5.5,0-7.5-4.4-7.5-8V121
		z"/>
	<path d="M138.1,141.6l-2.3,1l-3.2-7.6h-8.8l-3,7.5l-1.5-0.5l8-19.3l-0.5-1.3l2.3-1L138.1,141.6z M124.3,133.8h7.8l-4-9.3
		L124.3,133.8z"/>
	<path d="M143,132.8v9.2h-2.5v-21h5.8c3.8,0,6.4,2.5,6.4,5.8c0,2.2-1.3,4.3-3.4,5.3l6.1,9.2l-2.1,1.3l-6.5-9.9h-0.4H143z
		 M145.8,131.4c2.8-0.1,4.4-1.3,4.4-4.3c0-2.9-2-4.8-5.5-4.8H143v9.1H145.8z"/>
	<path d="M160.3,122.5v8.1h7.6v1.5h-7.6v8.5h9.2v1.5h-11.9v-21h11.9v1.5H160.3z"/>
	<path d="M194.4,132H183v10h-2.6v-21h2.6v9.5h11.4V121h2.7v21h-2.7V132z"/>
	<path d="M204.3,122.5v8.1h7.6v1.5h-7.6v8.5h9.2v1.5h-11.9v-21h11.9v1.5H204.3z"/>
	<path d="M219.6,132.8v9.2h-2.5v-21h5.8c3.8,0,6.4,2.5,6.4,5.8c0,2.2-1.3,4.3-3.4,5.3l6.1,9.2l-2.1,1.3l-6.5-9.9H223H219.6z
		 M222.4,131.4c2.8-0.1,4.3-1.3,4.3-4.3c0-2.9-2-4.8-5.5-4.8h-1.7v9.1H222.4z"/>
	<path d="M236.9,122.5v8.1h7.6v1.5h-7.6v8.5h9.2v1.5h-11.9v-21h11.9v1.5H236.9z"/>
	<path d="M22.4,158.4l2.6-1l7.5,17.9l3.4-8.2l-4-9.7l0.1,0v0h9.6l-3.4,8.3l4.1,9.6l7.4-17.9l1.4,0.5l-8,19.3l0.6,1.4l-2.5,1
		l-4.4-10.5l-3.4,8.2l0.6,1.3l-2.6,1L22.4,158.4z M37.2,163.7l2-4.8h-4L37.2,163.7z"/>
	<path d="M56.6,159.5v8.1h7.6v1.5h-7.6v8.5h9.2v1.5H54v-21h11.9v1.5H56.6z"/>
	<path d="M93.1,178.6l-2.3,1l-3.2-7.6h-8.8l-3,7.5l-1.5-0.5l8-19.3l-0.5-1.3l2.3-1L93.1,178.6z M79.3,170.8H87l-4-9.3L79.3,170.8z"
		/>
	<path d="M98,169.8v9.2h-2.5v-21h5.8c3.8,0,6.4,2.5,6.4,5.8c0,2.2-1.3,4.3-3.4,5.3l6.1,9.2l-2.1,1.3l-6.5-9.9h-0.4H98z M100.8,168.4
		c2.8-0.1,4.4-1.3,4.4-4.3c0-2.9-2-4.8-5.5-4.8H98v9.1H100.8z"/>
	<path d="M115.3,159.5v8.1h7.6v1.5h-7.6v8.5h9.2v1.5h-11.9v-21h11.9v1.5H115.3z"/>
	<path d="M137.9,162.9V179h-1.8v-18.3l-1-1.3l2.3-2l13.6,17.1V158h1.8v18.7l0.9,1.1l-2.2,1.9L137.9,162.9z"/>
	<path d="M167.2,157.4c5.8,0,10.8,4.5,10.8,10.6c0,6.3-5.1,11.7-11,11.7c-6,0-10.9-4.4-10.9-10.8
		C156.2,162.8,161.4,157.4,167.2,157.4z M175.3,169.6c0-5.6-4-10.2-9.3-10.2c-5,0-7.5,3.5-7.5,7.9c0,5.9,4.5,10.2,9.5,10.1
		C173.2,177.4,175.3,174.3,175.3,169.6z"/>
	<path d="M179,158.4l2.6-1l7.5,17.9l3.4-8.2l-4.1-9.7l0.2,0v0h9.6l-3.5,8.3l4.1,9.6l7.4-17.9l1.4,0.5l-8,19.3l0.6,1.4l-2.5,1
		l-4.4-10.5l-3.4,8.2l0.6,1.3l-2.6,1L179,158.4z M193.8,163.7l2-4.8h-4L193.8,163.7z"/>
	<path d="M224.8,169h-11.4v10h-2.6v-21h2.6v9.5h11.4V158h2.7v21h-2.7V169z"/>
	<path d="M234.7,159.5v8.1h7.6v1.5h-7.6v8.5h9.2v1.5h-11.9v-21H244v1.5H234.7z"/>
	<path d="M250,169.8v9.2h-2.5v-21h5.8c3.8,0,6.5,2.5,6.5,5.8c0,2.2-1.3,4.3-3.4,5.3l6.1,9.2l-2.1,1.3l-6.5-9.9h-0.4H250z
		 M252.8,168.4c2.8-0.1,4.3-1.3,4.3-4.3c0-2.9-2-4.8-5.5-4.8H250v9.1H252.8z"/>
	<path d="M267.3,159.5v8.1h7.6v1.5h-7.6v8.5h9.2v1.5h-11.9v-21h11.9v1.5H267.3z"/>
</g>
</svg>
