<?xml version="1.0" encoding="utf-8"?>
<!-- Generator: Adobe Illustrator 18.0.0, SVG Export Plug-In . SVG Version: 6.00 Build 0)  -->
<!DOCTYPE svg PUBLIC "-//W3C//DTD SVG 1.1//EN" "http://www.w3.org/Graphics/SVG/1.1/DTD/svg11.dtd">
<svg version="1.1" id="Layer_1" xmlns="http://www.w3.org/2000/svg" xmlns:xlink="http://www.w3.org/1999/xlink" x="0px" y="0px"
	 viewBox="0 0 300 300" enable-background="new 0 0 300 300" xml:space="preserve">
<g>
	<g>
		<path fill="#FFFFFF" d="M56,141.7v21.5h-2.4v-24.4l-1.4-1.8l3.1-2.6l18.2,22.7v-21.9h2.4V160l1.2,1.4l-3,2.5L56,141.7z"/>
		<path fill="#FFFFFF" d="M96.2,134.4c7.8,0,14.4,5.9,14.4,14.1c0,8.4-6.7,15.5-14.6,15.5c-7.9,0-14.5-5.9-14.5-14.3
			C81.5,141.6,88.5,134.4,96.2,134.4z M107.1,150.6c0-7.4-5.4-13.6-12.3-13.6c-6.7,0-10,4.6-9.9,10.5c0,7.9,6,13.5,12.7,13.5
			C104.2,161,107,156.9,107.1,150.6z"/>
		<path fill="#FFFFFF" d="M113.1,135.7l3.4-1.4l9.9,23.8l4.5-10.9l-5.4-12.9l0.2,0v0h12.8l-4.6,11.1l5.5,12.7l9.9-23.8l1.9,0.7
			l-10.7,25.7l0.8,1.9L138,164l-5.9-14l-4.5,10.9l0.8,1.8l-3.5,1.4L113.1,135.7z M132.9,142.8l2.7-6.4h-5.4L132.9,142.8z"/>
		<path fill="#FFFFFF" d="M175.3,149.8h-15.2v13.3h-3.5v-28h3.5v12.7h15.2v-12.7h3.6v28h-3.6V149.8z"/>
		<path fill="#FFFFFF" d="M186.2,137.1v-2H202v2H186.2z M186.2,135.8h3.5v27.4h-3.5V135.8z M187.2,149.8v-2h12.5v2H187.2z
			 M187.8,163.1v-2H202v2H187.8z"/>
		<path fill="#FFFFFF" d="M211.2,150.8v12.3h-3.3v-28h7.7c5.1,0,8.6,3.3,8.6,7.8c0,3-1.7,5.7-4.5,7l8.1,12.3l-2.8,1.7l-8.6-13.1
			h-0.6H211.2z M214.9,149.1c3.7-0.1,5.8-1.7,5.8-5.7c0-3.9-2.7-6.4-7.3-6.4h-2.3v12.2H214.9z"/>
		<path fill="#FFFFFF" d="M231.9,137.1v-2h15.8v2H231.9z M231.9,135.8h3.5v27.4h-3.5V135.8z M232.9,149.8v-2h12.5v2H232.9z
			 M233.5,163.1v-2h14.3v2H233.5z"/>
	</g>
	
		<text transform="matrix(1 0 0 1 110.6583 194.9512)" fill="#FFFFFF" font-family="'TiemposText-RegularItalic'" font-size="20.9208">Journal</text>
	
		<text transform="matrix(1 0 0 1 130.8497 118.041)" fill="#FFFFFF" font-family="'TiemposText-RegularItalic'" font-size="20.9208">The</text>
</g>
</svg>
