<?xml version="1.0" encoding="utf-8"?>
<!DOCTYPE svg PUBLIC "-//W3C//DTD SVG 1.1//EN" "http://www.w3.org/Graphics/SVG/1.1/DTD/svg11.dtd">
<svg version="1.1" id="Layer_1" xmlns="http://www.w3.org/2000/svg" xmlns:xlink="http://www.w3.org/1999/xlink" x="0px" y="0px"
	 viewBox="0 0 190 40" enable-background="new 0 0 190 40" xml:space="preserve" class="logo-svg">
<g>
	<polygon fill="#FFFFFF" points="30.7,7.1 28.5,7.1 28.5,27.3 11.8,6.4 8.9,8.8 10.2,10.4 10.2,32.9 12.4,32.9 12.4,13.1 29,33.7 
		31.8,31.4 30.7,30"/>
	<path fill="#FFFFFF" d="M48.3,6.4c-7.1,0-13.5,6.7-13.5,14.1c0,7.8,6,13.2,13.3,13.2c7.3,0,13.5-6.6,13.5-14.3
		C61.6,11.8,55.5,6.4,48.3,6.4z M49.5,31c-6.2,0-11.7-5.2-11.7-12.4c0-5.4,3-9.7,9.2-9.7c6.4,0,11.4,5.7,11.4,12.6
		C58.3,27.2,55.7,30.9,49.5,31z"/>
	<path fill="#FFFFFF" d="M95.5,6.3l-9.1,22l-5-11.7l4.2-10.2H73.8v0l-0.2,0l5,11.9l-4.1,10L65.3,6.4l-3.2,1.3l10.8,26l3.2-1.3
		l-0.7-1.6l4.2-10L85,33.7l3.1-1.3l-0.8-1.7L97.3,7L95.5,6.3z M77.8,8.2h5l-2.5,5.9L77.8,8.2z"/>
	<polygon fill="#FFFFFF" points="117.6,18.8 103.6,18.8 103.6,7.1 100.4,7.1 100.4,32.9 103.6,32.9 103.6,20.6 117.6,20.6 
		117.6,32.9 120.9,32.9 120.9,7.1 117.6,7.1 	"/>
	<polygon fill="#FFFFFF" points="126.5,7.7 126.5,8.9 126.5,32.9 128,32.9 129.8,32.9 141.1,32.9 141.1,31.1 129.8,31.1 129.8,20.6 
		139.1,20.6 139.1,18.8 129.8,18.8 129.8,8.9 141.1,8.9 141.1,7.1 126.5,7.1 	"/>
	<path fill="#FFFFFF" d="M160.5,14.3c0-4.2-3.2-7.2-7.9-7.2h-7.1v25.8h3.1V21.6h4.2h0.5l8,12.1l2.6-1.6l-7.4-11.3
		C158.9,19.5,160.5,17,160.5,14.3z M151.9,19.9h-3.5V8.7h2.1c4.2,0,6.7,2.4,6.7,5.9C157.3,18.4,155.3,19.9,151.9,19.9z"/>
	<polygon fill="#FFFFFF" points="181.1,8.9 181.1,7.1 166.5,7.1 166.5,7.7 166.5,8.9 166.5,32.9 167.9,32.9 169.7,32.9 181.1,32.9 
		181.1,31.1 169.7,31.1 169.7,20.6 179,20.6 179,18.8 169.7,18.8 169.7,8.9 	"/>
</g>
</svg>