<?xml version="1.0" encoding="utf-8"?>
<!-- Generator: Adobe Illustrator 18.0.0, SVG Export Plug-In . SVG Version: 6.00 Build 0)  -->
<!DOCTYPE svg PUBLIC "-//W3C//DTD SVG 1.1//EN" "http://www.w3.org/Graphics/SVG/1.1/DTD/svg11.dtd">
<svg version="1.1" id="Layer_1" xmlns="http://www.w3.org/2000/svg" xmlns:xlink="http://www.w3.org/1999/xlink" x="0px" y="0px"
	 viewBox="0 0 300 300" enable-background="new 0 0 300 300" xml:space="preserve">
<path fill="#FFFFFF" d="M58.2,129.2v12.5h-3.4v-29.1h8c5.3,0,8.9,3.5,8.9,8.2c0,4.6-3.8,8.4-9.3,8.4H58.2z M62.3,127.4
	c3.6-0.1,5.9-2.2,5.9-6.2c0-4-2.9-6.8-7.5-6.8h-2.5v13H62.3z"/>
<path fill="#FFFFFF" d="M92.8,111.7c8.1,0,15,6.2,15,14.7c0,8.8-7,16.2-15.2,16.2c-8.3,0-15-6.1-15-14.9
	C77.6,119.3,84.8,111.7,92.8,111.7z M104.2,128.6c0-7.7-5.6-14.2-12.8-14.2c-6.9,0-10.4,4.8-10.3,10.9c0,8.2,6.2,14.1,13.2,14
	C101.2,139.4,104.1,135.2,104.2,128.6z"/>
<path fill="#FFFFFF" d="M115.1,112.6h8.2c7.5,0,14.8,6.1,14.8,14.7c0,8.3-7,14.4-14.8,14.4h-8.2V112.6z M118.6,114.6v25h3.8
	c6.8-0.1,12.1-3.8,12.1-11.3c0-6.9-4.1-13.7-12.9-13.7H118.6z"/>
<path fill="#FFFFFF" d="M168.2,139.6c-1.9,1.6-6.1,2.9-9.3,2.9c-8.3,0-14.7-5.9-14.7-14.9c0-8.4,7.2-15.9,15.2-15.9
	c5.4,0,8.3,2,8.3,2l-1.7,2.8c-1.4-0.8-4.1-2-7.9-2c-6.9,0-10.7,5.4-10.5,11.2c0.3,8.7,5.9,13.9,12.9,13.8c3.6,0,6-0.7,7.7-1.7V139.6
	z"/>
<path fill="#FFFFFF" d="M198.1,141.1l-3.2,1.5l-4.5-10.5h-12.2l-4.2,10.4l-2-0.7l11.1-26.7l-0.7-1.8l3.2-1.5L198.1,141.1z
	 M179,130.3h10.8l-5.5-12.9L179,130.3z"/>
<path fill="#FFFFFF" d="M202.2,139.3v-4.8c0,0,3.2,5.3,9.5,5.3c3.8,0,6.3-1.4,6.4-4.7c0.5-4.5-4.7-5.9-7.9-7
	c-5.1-1.8-8.3-3.9-7.9-8.8c0.3-4.8,4.3-7.6,8.8-7.6c3.5,0,6.1,1.2,7.6,2.4v3.8c-1.7-1.7-4.2-3.7-8.3-3.7c-2.5,0-5.4,1.5-5.4,4.6
	c0,3.2,3.4,4.4,7.2,5.6c5.2,1.8,9.3,3.8,8.9,9.4c-0.2,5.3-4.2,8.7-9.5,8.7C207.1,142.5,204,141.1,202.2,139.3z"/>
<path fill="#FFFFFF" d="M233.2,114.6h-8.3v-2h20.4v2H237v27.1h-3.8V114.6z"/>
<path fill="#FFFFFF" d="M118.5,165.1v22.3H116v-25.4l-1.5-1.8l3.2-2.7l18.9,23.6v-22.8h2.5v25.8l1.2,1.5l-3.1,2.6L118.5,165.1z"/>
<path fill="#FFFFFF" d="M178.2,158.4h3.7v29.1h-3.7V158.4z"/>
<rect x="146.2" y="181.7" fill="#FFFFFF" width="17.2" height="2"/>
<path fill="#FFFFFF" d="M155.1,158.4c-4.9,0-9.3,4.6-9.3,9.7c0,5.2,3.9,9.1,9.2,9.1c5,0,9.3-4.5,9.3-9.8
	C164.2,162.4,160.2,158.4,155.1,158.4z M155.8,174.9c-4.2,0-7.5-3.6-7.5-8.1c0-1.9,0.6-3.6,1.7-4.7c1-1,2.5-1.6,4.2-1.6
	c4.1,0,7.4,3.7,7.4,8.2C161.5,172.8,159.6,174.9,155.8,174.9z"/>
</svg>
